Coordinates
version=1
nRows=9
nColumns=63
inDegrees=yes

Units are S.I. units (second, meters, Newtons, ...)
If the header above contains a line with 'inDegrees', this indicates whether rotational values are in degrees (yes) or radians (no).

endheader
time	pelvis_tilt	pelvis_list	pelvis_rotation	pelvis_tx	pelvis_ty	pelvis_tz	hip_flexion_r	hip_adduction_r	hip_rotation_r	knee_angle_r	knee_angle_r_beta	ankle_angle_r	subtalar_angle_r	mtp_angle_r	hip_flexion_l	hip_adduction_l	hip_rotation_l	knee_angle_l	knee_angle_l_beta	ankle_angle_l	subtalar_angle_l	mtp_angle_l	L5_S1_Flex_Ext	L5_S1_Lat_Bending	L5_S1_axial_rotation	L4_L5_Flex_Ext	L4_L5_Lat_Bending	L4_L5_axial_rotation	L3_L4_Flex_Ext	L3_L4_Lat_Bending	L3_L4_axial_rotation	L2_L3_Flex_Ext	L2_L3_Lat_Bending	L2_L3_axial_rotation	L1_L2_Flex_Ext	L1_L2_Lat_Bending	L1_L2_axial_rotation	L1_T12_Flex_Ext	L1_T12_Lat_Bending	L1_T12_axial_rotation	Abs_r3	Abs_r2	Abs_r1	Abs_t1	Abs_t2	neck_flexion	neck_bending	neck_rotation	arm_flex_r	arm_add_r	arm_rot_r	elbow_flex_r	pro_sup_r	wrist_flex_r	wrist_dev_r	arm_flex_l	arm_add_l	arm_rot_l	elbow_flex_l	pro_sup_l	wrist_flex_l	wrist_dev_l
      3.71739130	     -3.43050999	     -3.42437773	     87.07468986	      0.22255508	      0.60406106	      0.74142124	      9.59869783	     -2.53882411	    -11.48700655	      8.38804766	      0.14639905	     13.96087867	     11.16972197	      0.00000000	     10.47339777	      3.08743628	     -8.25004271	      6.78031662	      0.11833885	     11.92425620	     -4.57062365	      0.00000000	      0.15370392	     -0.44560175	      0.23020269	      0.28544355	     -0.59265033	      0.24459036	      0.25252017	     -1.08343609	      0.24459036	      0.17566821	     -1.08343609	      0.20142735	      0.14272946	     -0.90867109	      0.18703969	      0.08782642	     -0.69023711	      0.17265202	      1.09789173	     -5.04073611	      1.28031830	      0.00000000	      0.00000000	     21.00725345	      8.80295289	     -0.55559372	     18.17256622	     -1.65865048	     43.69754546	     48.19480050	     63.24569815	    -10.09242545	     13.25421989	      5.78305973	    -12.73060973	     20.31275062	     57.45562831	     71.73618147	    -16.22981715	      8.43540163
      3.73913043	     -3.47264255	     -3.35557106	     87.18519936	      0.22211135	      0.60445021	      0.74174474	      9.55336450	     -2.60556154	    -11.39895582	      8.36803629	      0.14604979	     13.85742157	     11.01368318	      0.00000000	     10.42406376	      3.21062855	     -7.61791581	      6.77846953	      0.11830661	     11.76663861	     -5.21334867	      0.00000000	      0.14671495	     -0.45177969	      0.26641516	      0.27246433	     -0.60086699	      0.28306611	      0.24103798	     -1.09845713	      0.28306611	      0.16768051	     -1.09845713	      0.23311326	      0.13623950	     -0.92126914	      0.21646232	      0.08383292	     -0.69980674	      0.19981137	      1.04797019	     -5.11062219	      1.48172119	      0.00000000	      0.00000000	     20.80653323	      8.77401045	     -0.93185174	     17.81186397	     -2.22457307	     41.90171375	     49.69963321	     62.78227689	     -9.19791883	     15.20629512	      5.91025215	    -13.01754935	     19.58363598	     59.42466537	     71.39563143	    -16.79871018	     10.31071554
      3.76086957	     -3.39304808	     -3.31547261	     87.29619691	      0.22130347	      0.60471948	      0.74169495	      9.47179113	     -2.56390524	    -11.32189634	      8.26053804	      0.14417359	     13.80493926	     11.03761446	      0.00000000	     10.35354459	      3.21482652	     -7.14287165	      6.77936916	      0.11832231	     11.71620760	     -5.46996903	      0.00000000	      0.14512602	     -0.43262365	      0.28610672	      0.26951353	     -0.57538945	      0.30398839	      0.23842754	     -1.05188114	      0.30398839	      0.16586453	     -1.05188114	      0.25034338	      0.13476402	     -0.88220614	      0.23246171	      0.08292501	     -0.67013403	      0.21458004	      1.03662064	     -4.89392522	      1.59123975	      0.00000000	      0.00000000	     20.66224219	      8.58595452	     -0.92483123	     17.57384636	     -2.75923275	     40.48856097	     51.19772797	     62.62708779	     -8.99767039	     15.66570388	      5.78902671	    -13.11810202	     19.04994021	     61.72123133	     70.97650286	    -17.07614731	     11.50738315
      3.78260870	     -3.30600991	     -3.28099644	     87.64036814	      0.22004287	      0.60479964	      0.74142969	      9.37582431	     -2.56044016	    -11.46700679	      8.20067712	      0.14312882	     13.80436064	     11.00575710	      0.00000000	     10.27359437	      3.37208666	     -4.99268703	      6.75148541	      0.11783565	     10.90577445	     -8.24381399	      0.00000000	      0.14326051	     -0.40835655	      0.30308395	      0.26604910	     -0.54311422	      0.32202669	      0.23536270	     -0.99287812	      0.32202669	      0.16373244	     -0.99287812	      0.26519845	      0.13303171	     -0.83272068	      0.24625571	      0.08185906	     -0.63254430	      0.22731296	      1.02329552	     -4.61941101	      1.68566199	      0.00000000	      0.00000000	     20.49441203	      8.17855235	     -1.07631581	     16.87657429	     -2.87294958	     37.21781918	     53.02803642	     66.07390507	     -7.84240213	     16.47071093	      5.77926016	    -13.19559444	     19.31914972	     64.30409313	     71.50350693	    -17.38571171	     12.62147470
      3.80434783	     -3.12742435	     -3.23940718	     88.08380402	      0.21858519	      0.60484675	      0.74110862	      9.23606193	     -2.47180507	    -11.62620886	      8.09509566	      0.14128607	     13.85502490	     10.91638621	      0.00000000	     10.27361457	      3.32061377	     -4.54610107	      6.96691095	      0.12159553	     10.78179768	     -8.40955891	      0.00000000	      0.14354404	     -0.36432783	      0.24307634	      0.26657564	     -0.48455601	      0.25826861	      0.23582851	     -0.88582668	      0.25826861	      0.16405649	     -0.88582668	      0.21269180	      0.13329500	     -0.74293730	      0.19749952	      0.08202107	     -0.56434380	      0.18230725	      1.02532074	     -4.12134924	      1.35191767	      0.00000000	      0.00000000	     20.33403213	      7.73391464	     -0.47393132	     16.70594112	     -3.20069739	     36.20699179	     54.73885744	     67.02339139	     -7.76146330	     14.86474054	      5.49337273	    -13.22210075	     19.68970895	     66.92668206	     71.50238706	    -17.40020006	     12.19853941
      3.82608696	     -2.94553443	     -3.15145327	     88.67339363	      0.21704469	      0.60497171	      0.74074987	      8.99610811	     -2.39065917	    -11.91735094	      7.92875630	      0.13838290	     13.99575055	     10.82040476	      0.00000000	     10.25480552	      3.27231961	     -4.11910144	      7.22400034	      0.12608259	     10.72282097	     -8.46699337	      0.00000000	      0.14208561	     -0.32123005	      0.13467660	      0.26386718	     -0.42723597	      0.14309389	      0.23343244	     -0.78103875	      0.14309389	      0.16238964	     -0.78103875	      0.11784202	      0.13194069	     -0.65505232	      0.10942474	      0.08118772	     -0.49758535	      0.10100745	      1.01490327	     -3.63381858	      0.74903085	      0.00000000	      0.00000000	     19.96111924	      7.34902705	      0.18360080	     16.56610675	     -3.45790041	     35.81143852	     56.35089321	     69.78369694	     -7.84640278	     12.20977223	      5.25628547	    -13.25399779	     20.50120177	     69.11229151	     71.95852030	    -17.73480725	     10.30496106
      3.84782609	     -2.85250019	     -3.05995674	     89.11721834	      0.21582450	      0.60515265	      0.74036568	      8.78598331	     -2.39234546	    -12.20705189	      7.83632159	      0.13676961	     14.11501042	     10.84852860	      0.00000000	     10.18981962	      3.25812828	     -4.16728959	      7.36950479	      0.12862212	     10.72183106	     -8.05845055	      0.00000000	      0.14328715	     -0.29071130	      0.05586114	      0.26609857	     -0.38664603	      0.05935246	      0.23540646	     -0.70683546	      0.05935246	      0.16376288	     -0.70683546	      0.04887849	      0.13305645	     -0.59281849	      0.04538717	      0.08187428	     -0.45031181	      0.04189585	      1.02348578	     -3.28858438	      0.31068288	      0.00000000	      0.00000000	     19.65440431	      6.95257893	      0.75428952	     16.49396548	     -3.83383713	     36.29410378	     57.88146177	     73.03728141	     -8.96366711	      8.60677592	      5.12844914	    -13.14322265	     21.44467383	     70.77318800	     72.56512965	    -18.26724919	      7.49252471
      3.86956522	     -2.88586780	     -2.83964017	     89.37004829	      0.21504781	      0.60552508	      0.73984651	      8.43099741	     -2.50739231	    -12.66152002	      7.78623476	      0.13589543	     14.29108195	     11.15462248	      0.00000000	      9.98948181	      3.31608746	     -4.90339317	      7.50876489	      0.13105267	     11.02231777	     -7.11606754	      0.00000000	      0.13583580	     -0.28196622	     -0.00832888	      0.25226067	     -0.37501507	     -0.00884944	      0.22316464	     -0.68557267	     -0.00884944	      0.15524674	     -0.68557267	     -0.00728777	      0.12613712	     -0.57498551	     -0.00676722	      0.07761658	     -0.43676567	     -0.00624666	      0.97026154	     -3.18965827	     -0.04632274	      0.00000000	      0.00000000	     18.98561382	      6.75171922	      1.11092861	     16.63501493	     -4.14277145	     37.52284611	     59.13263344	     77.24898355	    -11.59758241	      4.97474821	      5.12841331	    -12.99068026	     22.38221365	     71.96168524	     72.57341763	    -19.05932672	      4.20457478
      3.89130435	     -2.84691950	     -2.71491023	     89.49263923	      0.21410506	      0.60591380	      0.73920669	      8.25296622	     -2.57736010	    -13.25929991	      7.95090790	      0.13876952	     14.21100202	     11.43078502	      0.00000000	      9.69952359	      3.30499123	     -5.64361139	      7.21383659	      0.12590520	     11.09722386	     -6.10606945	      0.00000000	      0.14906387	     -0.26235368	     -0.03332065	      0.27682651	     -0.34893039	     -0.03540319	      0.24489703	     -0.63788674	     -0.03540319	      0.17036510	     -0.63788674	     -0.02915557	      0.13842071	     -0.53499162	     -0.02707303	      0.08517510	     -0.40638585	     -0.02499049	      1.06474832	     -2.96779730	     -0.18531947	      0.00000000	      0.00000000	     18.43171674	      6.54327039	      1.47993683	     16.70765685	     -4.67362240	     38.73078433	     60.27238743	     80.41186216	    -13.90327712	      1.94464364	      5.21036215	    -12.55154049	     23.10344080	     72.71826464	     72.54253450	    -19.47477130	      1.41984085
